<svg
  version="1.1"
  viewBox="0 0 520 520"
  width="32"
  height="32"
  fill="none"
  xmlns="http://www.w3.org/2000/svg"
>
  <g clip-path="url(#p.0)">
    <!-- Semi-circle (outer-most) -->
    <path fill="#ffe599" fill-rule="evenodd" d="m27.14 315.50c0.05 -153.17 103.98 -277.40 232.37 -277.74c128.38 -0.34 232.78 123.34 233.39 276.51l-232.88 1.33z"/>
    <!-- Semi-circle 1 -->
    <path fill="#ffd966" fill-rule="evenodd" d="m77.51 315.49c0.04 -120.04 81.49 -217.40 182.10 -217.67c100.61 -0.27 182.42 96.66 182.91 216.70l-182.50 1.05z"/>
    <!-- Semi-circle 0 (inner-most) -->
    <path fill="#f1c232" fill-rule="evenodd" d="m134.43 315.53c0.03 -82.60 56.08 -149.60 125.31 -149.79c69.23 -0.18 125.53 66.52 125.87 149.12l-125.59 0.72z"/>
    <!-- W glyph 1 -->
    <path fill="#ff9800" fill-rule="evenodd" d="m202.40 327.73c0 -83.25 25.79 -150.74 57.60 -150.74c15.28 0 29.93 15.88 40.73 44.15c10.80 28.27 16.87 66.61 16.87 106.59c0 83.25 -25.79 150.74 -57.60 150.74c-31.81 0 -57.60 -67.49 -57.60 -150.74z"/>
    <!-- W glyph 2 -->
    <path fill="#ff9800" fill-rule="evenodd" d="m390.46 296.25c0 -83.25 25.79 -150.74 57.60 -150.74c15.28 0 29.93 15.88 40.73 44.15c10.80 28.27 16.87 66.61 16.87 106.59c0 83.25 -25.79 150.74 -57.60 150.74c-31.81 0 -57.60 -67.49 -57.60 -150.74z"/>
    <!-- W glyph 3 -->
    <path fill="#ff9800" fill-rule="evenodd" d="m14.34 296.25c0 -83.25 25.79 -150.74 57.60 -150.74c15.28 0 29.93 15.88 40.73 44.15c10.80 28.27 16.87 66.61 16.87 106.59c0 83.25 -25.79 150.74 -57.60 150.74c-31.81 0 -57.60 -67.49 -57.60 -150.74z"/>
    <!-- Connecting stroke -->
    <path fill="#ff9800" fill-rule="evenodd" d="m505.65 305.62c-0.12 67.47 -109.28 122.22 -244.35 122.58c-135.08 0.36 -245.39 -53.82 -246.94 -121.28l245.64 -1.41z"/>
  </g>
</svg>